<?xml version="1.0" encoding="utf-8"?>
<!-- Generator: Adobe Illustrator 16.0.0, SVG Export Plug-In . SVG Version: 6.00 Build 0)  -->
<!DOCTYPE svg PUBLIC "-//W3C//DTD SVG 1.1//EN" "http://www.w3.org/Graphics/SVG/1.1/DTD/svg11.dtd">
<svg version="1.1" id="Capa_1" xmlns="http://www.w3.org/2000/svg" xmlns:xlink="http://www.w3.org/1999/xlink" x="0px" y="0px"
	 width="215.434px" height="215.434px" viewBox="0 0 215.434 215.434" enable-background="new 0 0 215.434 215.434"
	 xml:space="preserve">
<g>
	<circle fill="#54C147" cx="107.717" cy="107.717" r="106.299"/>
	<path fill="#FFFFFF" d="M110.465,145.006L81.49,170.365v-25.358l-12.845,0.004c-11.037,0-19.983-8.947-19.983-19.986V76.863
		c0-11.035,8.946-19.981,19.983-19.981h78.145c11.038,0,19.982,8.946,19.982,19.981v48.161c0,11.039-8.944,19.986-19.982,19.986
		L110.465,145.006z M134.018,110.956c4.837,0,8.765-3.924,8.765-8.76c0-4.84-3.928-8.764-8.765-8.764
		c-4.838,0-8.759,3.924-8.759,8.764C125.259,107.032,129.18,110.956,134.018,110.956z M107.738,110.956
		c4.838,0,8.76-3.924,8.76-8.76c0-4.84-3.922-8.764-8.76-8.764s-8.765,3.924-8.765,8.764
		C98.973,107.032,102.9,110.956,107.738,110.956z M81.454,110.956c4.833,0,8.758-3.924,8.758-8.76c0-4.84-3.926-8.764-8.758-8.764
		c-4.84,0-8.762,3.924-8.762,8.764C72.692,107.032,76.614,110.956,81.454,110.956z"/>
	<circle fill="none" stroke="#54C147" stroke-miterlimit="3.8637" cx="107.717" cy="107.717" r="106.299"/>
</g>
</svg>
